# xmcd
#
# Track frame offsets:
#	150
#	18345
#	35545
#	54005
#	71485
#	90904
#	109246
#	127206
#	142803
#	161660
#	179857
#	197057
#	215517
#	232997
#	252420
#	270765
#	288725
#	304323
#	323180
#
# Disc length: 4518 seconds
#
# Revision: 1
# Processed by: cddbd v1.5.1PL2 Copyright (c) Steve Scherf et al.
# Submitted via: audiograbber 1.83.01
#
DISCID=1411a413
DTITLE=Various Artist - Thmbc07
DYEAR=2006
DGENRE=Country
TTITLE0=Womack, Lee Ann - I Hope You Dance (Vocals)
TTITLE1=Montgomery, John Michael - Little Girl, The (Vocals)
TTITLE2=Oneal, Jamie - There Is No Arizona (Vocals)
TTITLE3=Evans, Sara - Born To Fly (Vocals)
TTITLE4=Gilman, Billy - One Voice (Vocals)
TTITLE5=Urban, Keith - Your Everything (Vocals)
TTITLE6=McGraw, Tim - Some Things Never Change (Vocals)
TTITLE7=Wariner, Steve - I'm Already Taken (Vocals)
TTITLE8=Hill, Faith - Secret Of Life, The
TTITLE9=Womack, Lee Ann - I Hope You Dance
TTITLE10=Montgomery, John Michael - Little Girl, The
TTITLE11=Oneal, Jamie - There Is No Arizona
TTITLE12=Evans, Sara - Born To Fly
TTITLE13=Gilman, Billy - One Voice
TTITLE14=Urban, Keith - Your Everything
TTITLE15=McGraw, Tim - Some Things Never Change
TTITLE16=Wariner, Steve - I'm Already Taken
TTITLE17=Hill, Faith - Secret Of Life, The
TTITLE18=Keith, Toby - How Do You Like Me Now
EXTD=
EXTT0=
EXTT1=
EXTT2=
EXTT3=
EXTT4=
EXTT5=
EXTT6=
EXTT7=
EXTT8=
EXTT9=
EXTT10=
EXTT11=
EXTT12=
EXTT13=
EXTT14=
EXTT15=
EXTT16=
EXTT17=
EXTT18=
PLAYORDER=
